HIERARCHY
ROOT Hips
{
  OFFSET -35.2597 29.1586 114.425
  CHANNELS 6 Xposition Yposition Zposition Zrotation Xrotation Yrotation
  JOINT LeftUpLeg
  {
    OFFSET 8.64259 1.95398 -2.38835
    CHANNELS 3 Zrotation Xrotation Yrotation
    JOINT LeftLeg
    {
      OFFSET 43.7702 0 0
      CHANNELS 3 Zrotation Xrotation Yrotation
      JOINT LeftFoot
      {
        OFFSET 40.6238 0 0
        CHANNELS 3 Zrotation Xrotation Yrotation
        JOINT LeftToeBase
        {
          OFFSET 12.7242 0 0
          CHANNELS 3 Zrotation Xrotation Yrotation
          End Site
          {
            OFFSET 0 0 0
          }
        }
      }
    }
  }
  JOINT RightUpLeg
  {
    OFFSET -8.2249 1.95398 -2.59336
    CHANNELS 3 Zrotation Xrotation Yrotation
    JOINT RightLeg
    {
      OFFSET 43.5653 0 0
      CHANNELS 3 Zrotation Xrotation Yrotation
      JOINT RightFoot
      {
        OFFSET 40.6238 0 0
        CHANNELS 3 Zrotation Xrotation Yrotation
        JOINT RightToeBase
        {
          OFFSET 12.7242 0 0
          CHANNELS 3 Zrotation Xrotation Yrotation
          End Site
          {
            OFFSET 0 0 0
          }
        }
      }
    }
  }
  JOINT Spine
  {
    OFFSET 0.165834 0.87714 6.61349
    CHANNELS 3 Zrotation Xrotation Yrotation
    JOINT Spine1
    {
      OFFSET 7.38963 1.71661e-005 0
      CHANNELS 3 Zrotation Xrotation Yrotation
      JOINT Spine2
      {
        OFFSET 11.9445 1.14441e-005 0
        CHANNELS 3 Zrotation Xrotation Yrotation
        JOINT Spine3
        {
          OFFSET 14.7254 4.19617e-005 0
          CHANNELS 3 Zrotation Xrotation Yrotation
          JOINT Spine4
          {
            OFFSET 10.9679 0 0
            CHANNELS 3 Zrotation Xrotation Yrotation
            JOINT RightShoulder
            {
              OFFSET 2.46616 -1.6653 3.69651
              CHANNELS 3 Zrotation Xrotation Yrotation
              JOINT RightArm
              {
                OFFSET 13.0012 0 0
                CHANNELS 3 Zrotation Xrotation Yrotation
                JOINT RightForeArm
                {
                  OFFSET 28.7848 1.62311e-005 0
                  CHANNELS 3 Zrotation Xrotation Yrotation
                  JOINT RightHand
                  {
                    OFFSET 26.5688 1.62095e-005 0
                    CHANNELS 3 Zrotation Xrotation Yrotation
                    End Site
                    {
                      OFFSET 0 0 0
                    }
                  }
                }
              }
            }
            JOINT LeftShoulder
            {
              OFFSET 2.38034 -1.29275 -3.7523
              CHANNELS 3 Zrotation Xrotation Yrotation
              JOINT LeftArm
              {
                OFFSET 16.3182 6.07031e-005 0
                CHANNELS 3 Zrotation Xrotation Yrotation
                JOINT LeftForeArm
                {
                  OFFSET 27.0901 0 0
                  CHANNELS 3 Zrotation Xrotation Yrotation
                  JOINT LeftHand
                  {
                    OFFSET 24.5451 1.51738e-005 0
                    CHANNELS 3 Zrotation Xrotation Yrotation
                    End Site
                    {
                      OFFSET 0 0 0
                    }
                  }
                }
              }
            }
            JOINT Neck
            {
              OFFSET 5.0226 -0.0266342 0
              CHANNELS 3 Zrotation Xrotation Yrotation
              JOINT Head
              {
                OFFSET 6.69364 2.86102e-005 0
                CHANNELS 3 Zrotation Xrotation Yrotation
                End Site
                {
                  OFFSET 0 0 0
                }
              }
            }
          }
        }
      }
    }
  }
}
MOTION
Frames:	17
Frame Time:	0.0416667
34.6671 38.5743 2.75745 -136.095 -81.7457 -135.029 -42.0469 56.4834 -5.56172 -141.222 -6.41539 9.64492 104.503 29.4222 -2.89057 13.942 -15.8274 11.0638 63.0546 49.0483 177.386 -137.47 17.2504 -9.47467 99.2558 -32.1799 -8.59279 27.7786 -0.861991 4.2543 0.882396 12.9071 -90.3061 1.06202 1.64519 -0.538793 -10.608 1.61989 -0.610707 -33.1515 1.73103 -0.019305 -13.1389 1.73104 -0.0193009 86.1456 -26.0141 -116.366 35.3217 1.48644 -50.2578 -15.9936 -80.5352 -15.1685 -41.3232 -5.49754 9.5874 -91.2176 -40.3903 74.4156 -37.554 9.10359 -67.0916 23.4637 83.9704 -24.5689 12.7601 2.2757 13.3043 14.9327 -3.78017 -3.18069 4.34948 -2.68784 2.29197 
34.893 38.6495 2.546 -146.034 -82.0764 -144.539 -44.9427 57.5142 -5.27617 -140.56 -7.75419 9.59654 105.104 29.4822 -3.84645 12.8398 -16.4342 10.7859 63.4147 49.5665 175.093 -137.555 16.2329 -9.45013 101.964 -33.5844 -6.72505 24.7551 1.03831 2.02686 0.794993 12.964 -90.4176 0.948806 1.42889 -0.76113 -10.7216 1.394 -0.82331 -33.2627 1.59156 -0.296427 -13.25 1.59157 -0.296425 86.2232 -25.7972 -116.327 34.9056 1.7769 -50.7511 -17.5033 -81.5235 -16.653 -37.8051 -4.37758 7.81787 -91.1922 -40.0768 74.3671 -38.0015 9.2723 -66.141 19.191 82.6168 -20.2953 17.4141 2.92122 12.6655 15.2967 -2.42394 -1.30421 5.49125 -2.00496 -0.417133 
34.8918 38.6274 2.54647 -145.912 -82.0357 -144.503 -44.9142 57.5312 -5.23663 -140.687 -7.63499 9.57195 105 29.0419 -4.49428 13.3101 -17.2059 12.2361 63.3128 49.6035 175.297 -137.586 16.2151 -9.44624 101.628 -33.4531 -6.99638 25.0333 0.908544 2.08395 0.786859 12.9549 -90.3944 0.967134 1.42139 -0.716638 -10.7033 1.38847 -0.778527 -33.2443 1.57104 -0.256237 -13.2317 1.57104 -0.256248 85.9922 -26.0149 -116.678 34.4844 2.12347 -51.0841 -15.3935 -80.0736 -14.5804 -33.1504 -3.33474 6.08496 -91.2054 -39.8297 74.2733 -37.3513 8.91019 -67.2772 22.0947 83.5976 -23.1998 12.1882 1.88604 11.0847 14.9794 -2.5785 -1.82241 5.67115 -1.99717 0.0092528 
34.9088 38.6207 2.58485 -145.824 -81.9785 -144.327 -45.5528 57.5516 -4.57631 -140.313 -7.89491 9.63542 106.802 31.4394 -2.99625 12.4427 -15.8763 9.70569 63.3903 49.6144 175.226 -137.607 16.3816 -9.44152 101.685 -33.343 -6.78365 25.0564 0.922439 2.01383 0.80152 12.962 -90.4119 0.952928 1.44411 -0.749568 -10.7175 1.40971 -0.81242 -33.2587 1.6026 -0.280804 -13.246 1.6026 -0.280821 86.037 -25.8846 -116.659 34.5434 2.03698 -51.1744 -14.7101 -79.4892 -13.9124 -30.3042 -2.6333 4.73594 -91.2533 -40.0608 74.2608 -37.6683 9.31351 -67.2037 25.5211 84.4498 -26.6266 12.5753 2.33637 13.9401 15.0228 -2.55766 -1.69254 5.74421 -2.00947 0.0312566 
34.8883 38.6158 2.56188 -145.521 -81.9351 -144.097 -45.2556 57.5326 -4.79451 -140.479 -7.75443 9.62107 106.102 30.5648 -3.48688 14.0596 -15.8882 11.2583 63.4898 49.6178 175.261 -137.562 16.2959 -9.43778 101.508 -33.4786 -7.18264 25.192 0.807701 2.19201 0.801838 12.9675 -90.4079 0.94205 1.44621 -0.741555 -10.7284 1.41217 -0.804502 -33.2696 1.60221 -0.272545 -13.257 1.6022 -0.272545 86.1147 -25.8649 -116.511 34.3245 2.24385 -51.2476 -17.1842 -81.3319 -16.3388 -30.1676 -2.63758 4.78435 -91.2686 -40.0635 74.2359 -37.6173 9.28638 -67.2958 24.0583 84.1179 -25.1637 12.2494 2.26354 13.8262 15.1479 -2.53004 -1.66489 5.70734 -1.98153 0.140967 
34.8854 38.6415 2.54631 -146.046 -82.0296 -144.513 -44.8638 57.6463 -5.31633 -140.641 -7.68956 9.56658 105.044 29.1126 -4.40344 15.0697 -16.1236 12.5661 63.5013 49.4953 175.112 -137.519 16.2566 -9.46389 101.641 -33.5683 -7.11087 25.012 0.912634 2.09805 0.795965 12.9668 -90.4378 0.943578 1.42329 -0.800541 -10.7269 1.38668 -0.862425 -33.2678 1.59807 -0.335682 -13.2551 1.59807 -0.335699 86.1996 -25.6612 -116.45 34.6258 1.96304 -51.1309 -16.5569 -80.9312 -15.7216 -33.3391 -3.5191 6.78484 -91.3154 -40.1095 74.1714 -37.5573 9.22532 -67.3426 24.9893 84.334 -26.0948 12.3405 2.24276 13.5564 15.1233 -2.54978 -1.30093 5.73348 -2.12091 -0.233164 
34.8829 38.6133 2.57415 -145.916 -81.9941 -144.458 -45.3308 57.5438 -4.79765 -140.467 -7.89548 9.61947 106.346 30.6133 -3.65568 13.7713 -15.9593 11.1105 63.4697 49.555 175.181 -137.566 16.3938 -9.45323 101.662 -33.4744 -6.99131 25.2138 0.845556 2.05086 0.801963 12.9823 -90.4392 0.912541 1.43474 -0.802297 -10.7579 1.39806 -0.86466 -33.2989 1.60953 -0.333913 -13.2863 1.60952 -0.333919 86.3121 -25.5742 -116.267 34.4515 2.06358 -51.4311 -15.6252 -80.2552 -14.8074 -31.789 -3.01701 5.5323 -91.2745 -40.3691 74.3147 -37.4152 9.08914 -67.4724 22.8821 83.8177 -23.9873 12.52 2.05375 11.9406 15.397 -2.55221 -1.20465 5.43726 -2.1489 -0.297287 
34.8592 38.6061 2.58868 -146.761 -82.0001 -145.368 -45.6536 57.6243 -4.53721 -140.374 -7.90881 9.62131 106.695 30.9786 -3.57224 12.0252 -16.4828 10.0791 63.3924 49.603 175.184 -137.593 16.352 -9.45475 101.48 -33.555 -7.299 25.2335 0.786853 2.20387 0.773264 12.9805 -90.4325 0.916114 1.38001 -0.791336 -10.7544 1.34385 -0.851313 -33.2949 1.55402 -0.339936 -13.2823 1.55402 -0.33993 86.1848 -25.6642 -116.479 34.3257 2.25317 -51.2085 -16.9461 -81.1842 -16.1044 -32.1313 -2.84286 4.86813 -91.283 -40.3566 74.2972 -37.7685 9.48406 -67.2724 28.5485 85.0207 -29.6544 12.8068 2.56276 15.3014 15.0945 -2.54557 -1.17085 5.58221 -2.1666 -0.480454 
34.8271 38.6626 2.60245 -146.395 -82.0237 -145.108 -45.2556 57.5895 -4.79397 -140.664 -7.64339 9.57531 105.308 29.3233 -4.39238 14.9758 -15.9926 12.2999 63.5681 49.6962 175.066 -137.545 16.4314 -9.43951 101.712 -33.5253 -7.04991 25.3572 0.798409 2.01543 0.781077 12.9964 -90.4532 0.884343 1.38792 -0.830737 -10.7862 1.35002 -0.891038 -33.3267 1.57342 -0.375131 -13.314 1.57342 -0.375124 86.5556 -25.2726 -115.931 34.858 1.69242 -51.2412 -15.6814 -80.3001 -14.8624 -34.6382 -3.80981 7.23117 -91.3522 -40.9983 74.3676 -37.3401 8.88161 -67.2492 33.3823 85.7012 -34.4889 14.3041 2.16577 10.9342 15.6999 -2.51602 -0.779916 5.13879 -2.23056 -0.38773 
34.8054 38.6664 2.62108 -146.037 -82.0461 -144.758 -45.1965 57.7366 -4.82108 -140.621 -7.66876 9.56615 105.58 29.3531 -4.72202 15.617 -15.8389 12.7443 63.5734 49.7255 175.113 -137.511 16.6536 -9.45359 101.94 -33.5971 -6.79135 25.2492 0.788041 2.18074 0.773455 12.9677 -90.4169 0.941521 1.38619 -0.761213 -10.729 1.35135 -0.82149 -33.2696 1.55087 -0.309338 -13.2569 1.55087 -0.30933 86.0982 -25.7316 -116.619 34.2649 2.27488 -51.3653 -16.8288 -81.1077 -15.989 -30.0325 -2.67663 5.00162 -91.2911 -40.4507 74.311 -37.7681 9.48755 -67.28 28.8686 85.0734 -29.9747 12.2669 2.46304 15.2822 15.0395 -2.62474 -1.36017 5.62824 -2.17891 -0.243501 
34.811 38.7139 2.62526 -145.425 -82.0277 -144.208 -45.5742 57.6041 -4.40874 -140.488 -7.6634 9.5967 105.977 30.1297 -3.99212 13.8732 -16.1939 11.4787 63.5621 49.8078 175.179 -137.533 16.533 -9.42522 101.822 -33.4748 -6.73299 25.2624 0.806936 2.107 0.784808 12.9813 -90.4185 0.914367 1.40834 -0.762933 -10.7561 1.3734 -0.824193 -33.2969 1.57252 -0.304311 -13.2843 1.57251 -0.304311 86.4436 -25.5986 -115.983 34.6582 1.77296 -51.6972 -15.0533 -79.7896 -14.2477 -29.7492 -2.60278 4.80082 -91.2322 -40.5828 74.4467 -37.6504 9.39786 -67.4362 26.7072 84.6902 -27.8129 12.6286 2.35083 14.006 15.5009 -2.60462 -1.07498 5.30361 -2.24115 -0.438358 
34.8086 38.7096 2.62105 -145.685 -82.0613 -144.433 -45.3059 57.6623 -4.75084 -140.636 -7.69139 9.56376 105.272 29.104 -4.65203 13.8385 -16.6243 12.0055 63.5435 49.8085 175.102 -137.523 16.7466 -9.43044 102.19 -33.4858 -6.27416 25.0456 0.916387 2.0452 0.778459 12.9803 -90.4314 0.916504 1.39081 -0.788723 -10.754 1.35475 -0.849181 -33.2946 1.56354 -0.334187 -13.282 1.56354 -0.334193 86.5279 -25.4584 -115.887 34.6577 1.75031 -51.7914 -15.6166 -80.2489 -14.7989 -29.9902 -2.71298 5.13443 -91.2698 -40.5877 74.3858 -37.4669 9.14816 -67.4455 24.2263 84.1582 -25.3317 12.4031 2.1544 12.8171 15.3313 -2.63739 -0.975866 5.45051 -2.30849 -0.555318 
34.8211 38.6758 2.66533 -145.502 -82.0618 -144.223 -45.7934 57.6104 -4.28486 -140.243 -7.95551 9.64218 106.855 31.2923 -3.2889 12.7583 -15.7027 9.76647 63.4855 49.7282 175.121 -137.56 16.666 -9.44576 102.063 -33.5357 -6.56385 25.2403 0.756709 2.28647 0.779004 12.9807 -90.4371 0.915789 1.38974 -0.799889 -10.7547 1.35319 -0.86028 -33.2953 1.56587 -0.345169 -13.2827 1.56587 -0.345158 86.5868 -25.3786 -115.809 35.0998 1.30844 -51.7147 -13.8548 -78.6509 -13.0798 -30.8965 -3.00637 5.88989 -91.3373 -40.4331 74.2292 -37.3456 9.00982 -67.51 23.2425 83.9132 -24.3477 12.3981 2.10304 12.4337 15.3587 -2.58728 -0.837705 5.43752 -2.31384 -0.843051 
34.8115 38.7022 2.63682 -145.379 -81.9273 -144.199 -45.6093 57.6263 -4.34055 -140.642 -7.73423 9.57316 105.578 29.4844 -4.34165 13.3284 -16.4585 11.2937 63.599 49.8707 175.094 -137.61 16.5568 -9.41145 101.988 -33.3398 -6.33194 25.1522 0.96334 1.77246 0.788452 12.9783 -90.4247 0.920265 1.41325 -0.77503 -10.7502 1.37777 -0.836488 -33.2911 1.58083 -0.314363 -13.2784 1.58082 -0.314377 86.5438 -25.4247 -115.872 34.6483 1.77405 -51.7401 -16.6681 -81.0044 -15.8309 -29.8487 -2.72699 5.23934 -91.3993 -40.4032 74.1175 -37.5012 9.12057 -67.283 25.2287 84.3867 -26.3343 12.7948 2.27473 13.2075 15.2541 -2.67385 -1.02014 5.59364 -2.339 -0.658348 
34.7985 38.649 2.63057 -145.05 -81.9907 -143.807 -45.3635 57.5232 -4.68581 -140.565 -7.98686 9.60687 105.615 29.7206 -3.98635 12.6154 -16.1747 10.2436 63.5482 49.689 175.133 -137.593 16.5557 -9.43703 102.191 -33.6092 -6.45191 24.9785 0.996244 1.88883 0.777838 12.9608 -90.4423 0.955509 1.38534 -0.811073 -10.715 1.34831 -0.871274 -33.2555 1.56504 -0.35715 -13.2429 1.56504 -0.357139 86.4803 -25.2523 -116.098 34.6707 1.82656 -51.4627 -16.1555 -80.6511 -15.3274 -29.0601 -2.45833 4.51494 -91.4771 -40.6746 74.0676 -37.0713 8.58682 -67.4148 21.0676 83.2839 -22.1724 11.8023 1.71632 10.1341 15.1169 -2.59053 -0.660582 5.56513 -2.3743 -0.958757 
34.7814 38.612 2.63077 -145.344 -81.8981 -144.009 -45.1567 57.7018 -4.86616 -140.684 -7.91186 9.56881 105.562 29.63 -4.08575 13.5018 -16.007 10.8756 63.7038 49.5195 174.973 -137.593 16.3871 -9.45388 101.838 -33.7172 -7.13001 25.222 0.768314 2.27425 0.788141 12.9478 -90.4353 0.981673 1.40851 -0.797022 -10.6888 1.37207 -0.858256 -33.2296 1.58291 -0.336773 -13.2169 1.58291 -0.336791 86.1423 -25.6218 -116.589 34.823 1.91146 -50.5659 -15.1304 -79.8545 -14.3231 -35.3499 -3.66769 6.42306 -91.5105 -40.5946 73.9891 -37.243 8.63631 -67.0033 20.5962 83.1286 -21.7009 12.405 1.86489 10.6376 14.6348 -2.62574 -1.01298 5.82193 -2.31301 -0.818128 
34.7835 38.5909 2.59365 -144.808 -81.9943 -143.44 -45.0632 57.5936 -5.05475 -140.62 -8.05476 9.57782 105.744 29.8922 -3.88791 12.8689 -16.1937 10.5091 63.518 49.4358 175.231 -137.58 16.6618 -9.469 102.113 -33.588 -6.57264 24.9709 0.912874 2.14783 0.786641 12.932 -90.4488 1.01321 1.40026 -0.824319 -10.6573 1.36264 -0.885155 -33.1979 1.58326 -0.365295 -13.1853 1.58326 -0.365294 86.2476 -25.5327 -116.423 34.4925 2.06057 -51.2823 -16.6693 -81.006 -15.8321 -29.7534 -2.6356 4.92275 -91.5332 -40.9904 74.067 -37.0937 8.47968 -67.1128 24.831 84.2984 -25.9365 12.5289 1.86158 10.4744 14.7524 -2.57488 -0.886674 5.63066 -2.29346 -0.796421 
